<svg width="25" height="25" viewBox="0 0 25 25" fill="none" xmlns="http://www.w3.org/2000/svg">
<g id="search-icon" clip-path="url(#clip0_249_1392)">
<path id="Union" fill-rule="evenodd" clip-rule="evenodd" d="M14.935 7.84313C16.8877 9.79575 16.8877 12.9616 14.935 14.9142C12.9824 16.8668 9.81658 16.8668 7.86396 14.9142C5.91134 12.9616 5.91134 9.79575 7.86396 7.84313C9.81658 5.89051 12.9824 5.89051 14.935 7.84313ZM17.0062 15.5712C19.0618 12.8294 18.8428 8.92251 16.3492 6.42891C13.6156 3.69524 9.18342 3.69524 6.44975 6.42891C3.71608 9.16258 3.71608 13.5947 6.44975 16.3284C8.94334 18.822 12.8502 19.041 15.592 16.9854L19.1777 20.5711C19.5682 20.9616 20.2014 20.9616 20.5919 20.5711C20.9824 20.1805 20.9824 19.5474 20.5919 19.1568L17.0062 15.5712Z" fill="#4F5261"/>
</g>
<defs>
<clipPath id="clip0_249_1392">
<rect width="24" height="24" fill="white" transform="translate(0.5 0.5)"/>
</clipPath>
</defs>
</svg>
